{
  "accessors": [
    {
      "bufferView": 2,
      "componentType": 5126,
      "count": 31744,
      "max": [
        0.9907435774803162,
        0.9907432198524475,
        1.0085725784301758
      ],
      "min": [
        -0.9907431602478027,
        -0.9907430410385132,
        -1.0085800886154175
      ],
      "type": "VEC3"
    },
    {
      "bufferView": 2,
      "byteOffset": 380928,
      "componentType": 5126,
      "count": 31744,
      "max": [
        0.9992787837982178,
        0.9992789030075073,
        0.9998407959938049
      ],
      "min": [
        -0.9992787837982178,
        -0.9992789030075073,
        -0.9998410940170288
      ],
      "type": "VEC3"
    },
    {
      "bufferView": 1,
      "componentType": 5126,
      "count": 31744,
      "max": [
        1.0,
        1.0
      ],
      "min": [
        0.0,
        0.0
      ],
      "type": "VEC2"
    },
    {
      "bufferView": 0,
      "componentType": 5125,
      "count": 46080,
      "type": "SCALAR"
    },
    {
      "bufferView": 2,
      "byteOffset": 761856,
      "componentType": 5126,
      "count": 31744,
      "max": [
        0.9907435774803162,
        0.9907432198524475,
        1.0085725784301758
      ],
      "min": [
        -0.9907431602478027,
        -0.9907430410385132,
        -1.0085800886154175
      ],
      "type": "VEC3"
    },
    {
      "bufferView": 2,
      "byteOffset": 1142784,
      "componentType": 5126,
      "count": 31744,
      "max": [
        0.9992787837982178,
        0.9992789030075073,
        0.9998407959938049
      ],
      "min": [
        -0.9992787837982178,
        -0.9992789030075073,
        -0.9998410940170288
      ],
      "type": "VEC3"
    },
    {
      "bufferView": 1,
      "byteOffset": 253952,
      "componentType": 5126,
      "count": 31744,
      "max": [
        1.0,
        1.0
      ],
      "min": [
        0.0,
        0.0
      ],
      "type": "VEC2"
    },
    {
      "bufferView": 0,
      "byteOffset": 184320,
      "componentType": 5125,
      "count": 46080,
      "type": "SCALAR"
    },
    {
      "bufferView": 2,
      "byteOffset": 1523712,
      "componentType": 5126,
      "count": 31744,
      "max": [
        0.9907435774803162,
        0.9907432198524475,
        1.0085725784301758
      ],
      "min": [
        -0.9907431602478027,
        -0.9907430410385132,
        -1.0085800886154175
      ],
      "type": "VEC3"
    },
    {
      "bufferView": 2,
      "byteOffset": 1904640,
      "componentType": 5126,
      "count": 31744,
      "max": [
        0.9992787837982178,
        0.9992789030075073,
        0.9998407959938049
      ],
      "min": [
        -0.9992787837982178,
        -0.9992789030075073,
        -0.9998410940170288
      ],
      "type": "VEC3"
    },
    {
      "bufferView": 1,
      "byteOffset": 507904,
      "componentType": 5126,
      "count": 31744,
      "max": [
        1.0,
        1.0
      ],
      "min": [
        0.0,
        0.0
      ],
      "type": "VEC2"
    },
    {
      "bufferView": 0,
      "byteOffset": 368640,
      "componentType": 5125,
      "count": 46080,
      "type": "SCALAR"
    },
    {
      "bufferView": 2,
      "byteOffset": 2285568,
      "componentType": 5126,
      "count": 7296,
      "max": [
        1.0077972412109375,
        1.0050458908081055,
        1.0472400188446045
      ],
      "min": [
        -0.9947457909584045,
        -1.0092658996582031,
        -1.0266499519348145
      ],
      "type": "VEC3"
    },
    {
      "bufferView": 2,
      "byteOffset": 2373120,
      "componentType": 5126,
      "count": 7296,
      "max": [
        0.9984210729598999,
        0.9998145699501038,
        0.9995157718658447
      ],
      "min": [
        -0.9999377727508545,
        -0.9991361498832703,
        -0.9998905658721924
      ],
      "type": "VEC3"
    },
    {
      "bufferView": 1,
      "byteOffset": 761856,
      "componentType": 5126,
      "count": 7296,
      "max": [
        1.0,
        0.9375001192092896
      ],
      "min": [
        0.0,
        0.06249989569187164
      ],
      "type": "VEC2"
    },
    {
      "bufferView": 0,
      "byteOffset": 552960,
      "componentType": 5125,
      "count": 10944,
      "type": "SCALAR"
    },
    {
      "bufferView": 2,
      "byteOffset": 2460672,
      "componentType": 5126,
      "count": 7477,
      "max": [
        0.9849361181259155,
        1.006260633468628,
        1.006645917892456
      ],
      "min": [
        -0.990851879119873,
        -1.0012309551239014,
        -0.9914693832397461
      ],
      "type": "VEC3"
    },
    {
      "bufferView": 2,
      "byteOffset": 2550396,
      "componentType": 5126,
      "count": 7477,
      "max": [
        0.9989069700241089,
        0.9988936185836792,
        0.9957535862922668
      ],
      "min": [
        -0.9999547600746155,
        -0.9999232292175293,
        -0.9990935325622559
      ],
      "type": "VEC3"
    },
    {
      "bufferView": 1,
      "byteOffset": 820224,
      "componentType": 5126,
      "count": 7477,
      "max": [
        1.0,
        0.9375000596046448
      ],
      "min": [
        0.0,
        0.06249992549419403
      ],
      "type": "VEC2"
    },
    {
      "bufferView": 0,
      "byteOffset": 596736,
      "componentType": 5125,
      "count": 11274,
      "type": "SCALAR"
    },
    {
      "bufferView": 2,
      "byteOffset": 2640120,
      "componentType": 5126,
      "count": 7476,
      "max": [
        1.0189132690429688,
        1.0062607526779175,
        1.0117332935333252
      ],
      "min": [
        -1.0092909336090088,
        -1.001231074333191,
        -0.9903377294540405
      ],
      "type": "VEC3"
    },
    {
      "bufferView": 2,
      "byteOffset": 2729832,
      "componentType": 5126,
      "count": 7476,
      "max": [
        0.9999244213104248,
        0.9988937973976135,
        0.9999271035194397
      ],
      "min": [
        -0.9994201064109802,
        -0.9999231100082397,
        -0.9947738647460938
      ],
      "type": "VEC3"
    },
    {
      "bufferView": 1,
      "byteOffset": 880040,
      "componentType": 5126,
      "count": 7476,
      "max": [
        1.0,
        0.9375000596046448
      ],
      "min": [
        0.0,
        0.06249992549419403
      ],
      "type": "VEC2"
    },
    {
      "bufferView": 0,
      "byteOffset": 641832,
      "componentType": 5125,
      "count": 11274,
      "type": "SCALAR"
    },
    {
      "bufferView": 2,
      "byteOffset": 2819544,
      "componentType": 5126,
      "count": 473,
      "max": [
        3.4820001125335693,
        0.6910000443458557,
        0.0
      ],
      "min": [
        0.06100000441074371,
        -0.009000000543892384,
        0.0
      ],
      "type": "VEC3"
    },
    {
      "bufferView": 2,
      "byteOffset": 2825220,
      "componentType": 5126,
      "count": 473,
      "max": [
        0.0,
        0.0,
        1.0
      ],
      "min": [
        0.0,
        0.0,
        1.0
      ],
      "type": "VEC3"
    },
    {
      "bufferView": 1,
      "byteOffset": 939848,
      "componentType": 5126,
      "count": 473,
      "max": [
        1.0,
        0.0
      ],
      "min": [
        0.0,
        0.0
      ],
      "type": "VEC2"
    },
    {
      "bufferView": 0,
      "byteOffset": 686928,
      "componentType": 5125,
      "count": 1365,
      "type": "SCALAR"
    },
    {
      "bufferView": 2,
      "byteOffset": 2830896,
      "componentType": 5126,
      "count": 1146,
      "max": [
        6.75499963760376,
        0.6910000443458557,
        0.0
      ],
      "min": [
        0.04000000283122063,
        -0.23000000417232513,
        0.0
      ],
      "type": "VEC3"
    },
    {
      "bufferView": 2,
      "byteOffset": 2844648,
      "componentType": 5126,
      "count": 1146,
      "max": [
        0.0,
        0.0,
        1.0
      ],
      "min": [
        0.0,
        0.0,
        1.0
      ],
      "type": "VEC3"
    },
    {
      "bufferView": 1,
      "byteOffset": 943632,
      "componentType": 5126,
      "count": 1146,
      "max": [
        1.0,
        0.0
      ],
      "min": [
        0.0,
        0.0
      ],
      "type": "VEC2"
    },
    {
      "bufferView": 0,
      "byteOffset": 692388,
      "componentType": 5125,
      "count": 3384,
      "type": "SCALAR"
    },
    {
      "bufferView": 2,
      "byteOffset": 2858400,
      "componentType": 5126,
      "count": 235,
      "max": [
        1.3970000743865967,
        0.6910000443458557,
        0.0
      ],
      "min": [
        0.04000000283122063,
        -0.009000000543892384,
        0.0
      ],
      "type": "VEC3"
    },
    {
      "bufferView": 2,
      "byteOffset": 2861220,
      "componentType": 5126,
      "count": 235,
      "max": [
        0.0,
        0.0,
        1.0
      ],
      "min": [
        0.0,
        0.0,
        1.0
      ],
      "type": "VEC3"
    },
    {
      "bufferView": 1,
      "byteOffset": 952800,
      "componentType": 5126,
      "count": 235,
      "max": [
        1.0,
        0.0
      ],
      "min": [
        0.0,
        0.0
      ],
      "type": "VEC2"
    },
    {
      "bufferView": 0,
      "byteOffset": 705924,
      "componentType": 5125,
      "count": 687,
      "type": "SCALAR"
    }
  ],
  "asset": {
    "extras": {
      "author": "Mikesmax_3 (https://sketchfab.com/smss31451)",
      "license": "CC-BY-4.0 (http://creativecommons.org/licenses/by/4.0/)",
      "source": "https://sketchfab.com/3d-models/stars-comparation-free-c446f4dded6943299c81f26509c473ea",
      "title": "Stars Comparation Free"
    },
    "generator": "Sketchfab-16.12.0",
    "version": "2.0"
  },
  "bufferViews": [
    {
      "buffer": 0,
      "byteLength": 708672,
      "name": "floatBufferViews",
      "target": 34963
    },
    {
      "buffer": 0,
      "byteLength": 954680,
      "byteOffset": 708672,
      "byteStride": 8,
      "name": "floatBufferViews",
      "target": 34962
    },
    {
      "buffer": 0,
      "byteLength": 2864040,
      "byteOffset": 1663352,
      "byteStride": 12,
      "name": "floatBufferViews",
      "target": 34962
    }
  ],
  "buffers": [
    {
      "byteLength": 4527392,
      "uri": "scene.bin"
    }
  ],
  "extensionsUsed": [
    "KHR_materials_emissive_strength"
  ],
  "images": [
    {
      "uri": "textures/Material.001_emissive.png"
    },
    {
      "uri": "textures/Material.003_emissive.png"
    },
    {
      "uri": "textures/Material.004_emissive.png"
    }
  ],
  "materials": [
    {
      "doubleSided": true,
      "emissiveFactor": [
        0.41142982530994376,
        0.41142982530994376,
        0.41142982530994376
      ],
      "name": "text_UY_SCUTI__0",
      "pbrMetallicRoughness": {
        "metallicFactor": 0.0,
        "roughnessFactor": 0.6
      }
    },
    {
      "doubleSided": true,
      "emissiveFactor": [
        1.0,
        1.0,
        1.0
      ],
      "emissiveTexture": {
        "index": 0
      },
      "extensions": {
        "KHR_materials_emissive_strength": {
          "emissiveStrength": 10.0
        }
      },
      "name": "Material.001",
      "pbrMetallicRoughness": {
        "baseColorFactor": [
          1.0,
          0.0,
          0.0,
          1.0
        ],
        "metallicFactor": 0.0,
        "roughnessFactor": 0.6662846972486012
      }
    },
    {
      "doubleSided": true,
      "emissiveFactor": [
        0.8990503590106179,
        0.8990503590106179,
        0.8990503590106179
      ],
      "emissiveTexture": {
        "index": 1
      },
      "name": "Material.003",
      "pbrMetallicRoughness": {
        "baseColorFactor": [
          0.39176699999999987,
          0.12184400000000004,
          0.03302180000000002,
          1.0
        ],
        "metallicFactor": 0.0,
        "roughnessFactor": 0.9613570185032498
      }
    },
    {
      "doubleSided": true,
      "emissiveFactor": [
        1.0,
        1.0,
        1.0
      ],
      "emissiveTexture": {
        "index": 2
      },
      "extensions": {
        "KHR_materials_emissive_strength": {
          "emissiveStrength": 4.617156928478257
        }
      },
      "name": "Material.004",
      "pbrMetallicRoughness": {
        "baseColorFactor": [
          0.39167399999999997,
          0.0,
          0.015216700000000003,
          1.0
        ],
        "metallicFactor": 0.0,
        "roughnessFactor": 0.9811346213556676
      }
    },
    {
      "doubleSided": true,
      "emissiveFactor": [
        0.6,
        0.2325996,
        0.05638236
      ],
      "name": "Material.005",
      "pbrMetallicRoughness": {
        "baseColorFactor": [
          0.391746,
          0.244741,
          0.0197548,
          1.0
        ],
        "metallicFactor": 0.0,
        "roughnessFactor": 0.9419180762897839
      }
    },
    {
      "doubleSided": true,
      "emissiveFactor": [
        0.6,
        0.00868638,
        0.03208998
      ],
      "name": "Material.006",
      "pbrMetallicRoughness": {
        "baseColorFactor": [
          0.800197,
          0.161145,
          0.0502124,
          1.0
        ],
        "metallicFactor": 0.0,
        "roughnessFactor": 0.9353780555000978
      }
    },
    {
      "doubleSided": true,
      "emissiveFactor": [
        0.6,
        0.00868638,
        0.03208998
      ],
      "name": "Material.002",
      "pbrMetallicRoughness": {
        "baseColorFactor": [
          0.800197,
          0.161145,
          0.0502124,
          1.0
        ],
        "metallicFactor": 0.0,
        "roughnessFactor": 0.9353780555000978
      }
    }
  ],
  "meshes": [
    {
      "name": "Stephenson 2-18.001_Material.001_0",
      "primitives": [
        {
          "attributes": {
            "NORMAL": 1,
            "POSITION": 0,
            "TEXCOORD_0": 2
          },
          "indices": 3,
          "material": 1,
          "mode": 4
        }
      ]
    },
    {
      "name": "Uy Scuti_Material.003_0",
      "primitives": [
        {
          "attributes": {
            "NORMAL": 5,
            "POSITION": 4,
            "TEXCOORD_0": 6
          },
          "indices": 7,
          "material": 2,
          "mode": 4
        }
      ]
    },
    {
      "name": "Sun.001_Material.004_0",
      "primitives": [
        {
          "attributes": {
            "NORMAL": 9,
            "POSITION": 8,
            "TEXCOORD_0": 10
          },
          "indices": 11,
          "material": 3,
          "mode": 4
        }
      ]
    },
    {
      "name": "sun effect fire_Material.005_0",
      "primitives": [
        {
          "attributes": {
            "NORMAL": 13,
            "POSITION": 12,
            "TEXCOORD_0": 14
          },
          "indices": 15,
          "material": 4,
          "mode": 4
        }
      ]
    },
    {
      "name": "stephenson effect_Material.006_0",
      "primitives": [
        {
          "attributes": {
            "NORMAL": 17,
            "POSITION": 16,
            "TEXCOORD_0": 18
          },
          "indices": 19,
          "material": 5,
          "mode": 4
        }
      ]
    },
    {
      "name": "stephenson effect_Material.002_0",
      "primitives": [
        {
          "attributes": {
            "NORMAL": 21,
            "POSITION": 20,
            "TEXCOORD_0": 22
          },
          "indices": 23,
          "material": 6,
          "mode": 4
        }
      ]
    },
    {
      "name": "text UY SCUTI__0",
      "primitives": [
        {
          "attributes": {
            "NORMAL": 25,
            "POSITION": 24,
            "TEXCOORD_0": 26
          },
          "indices": 27,
          "material": 0,
          "mode": 4
        }
      ]
    },
    {
      "name": "TEXT STEPHENSON__0",
      "primitives": [
        {
          "attributes": {
            "NORMAL": 29,
            "POSITION": 28,
            "TEXCOORD_0": 30
          },
          "indices": 31,
          "material": 0,
          "mode": 4
        }
      ]
    },
    {
      "name": "TEXT Sun__0",
      "primitives": [
        {
          "attributes": {
            "NORMAL": 33,
            "POSITION": 32,
            "TEXCOORD_0": 34
          },
          "indices": 35,
          "material": 0,
          "mode": 4
        }
      ]
    }
  ],
  "nodes": [
    {
      "children": [
        1
      ],
      "matrix": [
        1.0,
        0.0,
        0.0,
        0.0,
        0.0,
        2.220446049250313e-16,
        -1.0,
        0.0,
        0.0,
        1.0,
        2.220446049250313e-16,
        0.0,
        0.0,
        0.0,
        0.0,
        1.0
      ],
      "name": "Sketchfab_model"
    },
    {
      "children": [
        2
      ],
      "matrix": [
        0.009999999776482582,
        0.0,
        0.0,
        0.0,
        0.0,
        0.0,
        0.009999999776482582,
        0.0,
        0.0,
        -0.009999999776482582,
        0.0,
        0.0,
        0.0,
        0.0,
        0.0,
        1.0
      ],
      "name": "3ea3b4cc87764c57a33371c4a07f5f15.fbx"
    },
    {
      "children": [
        3,
        5,
        7,
        9,
        11,
        14,
        16,
        18
      ],
      "name": "RootNode"
    },
    {
      "children": [
        4
      ],
      "matrix": [
        4008.453857421875,
        0.0,
        0.0,
        0.0,
        0.0,
        0.0003026298468736937,
        -4008.4538574218636,
        0.0,
        0.0,
        4008.4538574218636,
        0.0003026298468736937,
        0.0,
        0.0,
        0.0,
        0.0,
        1.0
      ],
      "name": "Stephenson 2-18.001"
    },
    {
      "mesh": 0,
      "name": "Stephenson 2-18.001_Material.001_0"
    },
    {
      "children": [
        6
      ],
      "matrix": [
        2683.281982421875,
        0.0,
        0.0,
        0.0,
        0.0,
        0.000202582153703911,
        -2683.2819824218673,
        0.0,
        0.0,
        2683.2819824218673,
        0.000202582153703911,
        0.0,
        -9499.3984375,
        -814.0277709960938,
        0.0,
        1.0
      ],
      "name": "Uy Scuti"
    },
    {
      "mesh": 1,
      "name": "Uy Scuti_Material.003_0"
    },
    {
      "children": [
        8
      ],
      "matrix": [
        -75.82106018066406,
        -0.0,
        -0.0,
        -0.0,
        0.0,
        1.2352818636842725e-05,
        75.82106018066307,
        -0.0,
        -0.0,
        -75.82106018066307,
        1.2352818636842725e-05,
        -0.0,
        -16354.3291015625,
        -2334.555908203125,
        2.8451616764068604,
        1.0
      ],
      "name": "Sun.001"
    },
    {
      "mesh": 2,
      "name": "Sun.001_Material.004_0"
    },
    {
      "children": [
        10
      ],
      "matrix": [
        -79.13939666748047,
        -0.0,
        -0.0,
        -0.0,
        0.0,
        1.2893444271725557e-05,
        79.13939666747942,
        -0.0,
        -0.0,
        -79.13939666747942,
        1.2893444271725557e-05,
        -0.0,
        -16353.697265625,
        -2334.99462890625,
        4.738525390625,
        1.0
      ],
      "name": "sun effect fire"
    },
    {
      "mesh": 3,
      "name": "sun effect fire_Material.005_0"
    },
    {
      "children": [
        12,
        13
      ],
      "matrix": [
        2029.3594310570065,
        -3893.00801292929,
        86.12344264788658,
        0.0,
        74.13886504127474,
        -58.47139164690143,
        -4390.024243848144,
        0.0,
        3893.255120820166,
        2030.344542423069,
        38.70694912304674,
        0.0,
        0.0,
        0.0,
        0.0,
        1.0
      ],
      "name": "stephenson effect"
    },
    {
      "mesh": 4,
      "name": "stephenson effect_Material.006_0"
    },
    {
      "mesh": 5,
      "name": "stephenson effect_Material.002_0"
    },
    {
      "children": [
        15
      ],
      "matrix": [
        572.1448974609375,
        0.0,
        0.0,
        0.0,
        0.0,
        566.2162016458864,
        82.15227741390743,
        0.0,
        0.0,
        -82.15227741390743,
        566.2162016458864,
        0.0,
        -11290.2919921875,
        3008.1083984375,
        -81.72149658203125,
        1.0
      ],
      "name": "text UY SCUTI"
    },
    {
      "mesh": 6,
      "name": "text UY SCUTI__0"
    },
    {
      "children": [
        17
      ],
      "matrix": [
        572.1448974609375,
        0.0,
        0.0,
        0.0,
        0.0,
        566.2162016458864,
        82.15227741390743,
        0.0,
        0.0,
        -82.15227741390743,
        566.2162016458864,
        0.0,
        231.951904296875,
        4783.8427734375,
        -81.72149658203125,
        1.0
      ],
      "name": "TEXT STEPHENSON"
    },
    {
      "mesh": 7,
      "name": "TEXT STEPHENSON__0"
    },
    {
      "children": [
        19
      ],
      "matrix": [
        572.1448974609375,
        0.0,
        0.0,
        0.0,
        0.0,
        566.2162016458864,
        82.15227741390743,
        0.0,
        0.0,
        -82.15227741390743,
        566.2162016458864,
        0.0,
        -17025.634765625,
        -1167.5386962890625,
        -81.72149658203125,
        1.0
      ],
      "name": "TEXT Sun"
    },
    {
      "mesh": 8,
      "name": "TEXT Sun__0"
    }
  ],
  "samplers": [
    {
      "magFilter": 9729,
      "minFilter": 9987,
      "wrapS": 10497,
      "wrapT": 10497
    }
  ],
  "scene": 0,
  "scenes": [
    {
      "name": "Sketchfab_Scene",
      "nodes": [
        0
      ]
    }
  ],
  "textures": [
    {
      "sampler": 0,
      "source": 0
    },
    {
      "sampler": 0,
      "source": 1
    },
    {
      "sampler": 0,
      "source": 2
    }
  ]
}
